<svg xmlns="http://www.w3.org/2000/svg" xmlns:xlink="http://www.w3.org/1999/xlink" width="50" height="50" viewBox="0 0 30 30"><defs><linearGradient x1="50%" y1="0%" x2="50%" y2="100%" id="A"><stop stop-color="#5b7362" offset="0%"/><stop stop-color="#53695a" offset="100%"/></linearGradient><linearGradient x1="84.2448599%" y1="34.3760688%" x2="2.33350648%" y2="34.3760688%" id="B"><stop stop-color="#eee" stop-opacity=".04" offset="0%"/><stop stop-color="#d8d8d8" stop-opacity="0" offset="100%"/></linearGradient><linearGradient x1="50%" y1="0%" x2="50%" y2="94.9796716%" id="C"><stop stop-color="#53695a" stop-opacity=".24" offset=".0818201014%"/><stop stop-color="#53695a" offset="100%"/></linearGradient><path d="M13 12a3 3 0 0 1 3 3v2a1 1 0 0 1-1 1H1a1 1 0 0 1-1-1v-2a3 3 0 0 1 3-3h10zM8 0a5 5 0 1 1 0 10A5 5 0 1 1 8 0z" id="D"/></defs><g fill="none" fill-rule="evenodd"><g fill-rule="nonzero"><path fill="#53695a" d="M0 0h30v30H0z"/><path fill="url(#A)" d="M0 0h30v16.88H0z"/><path fill="url(#B)" d="M0 0h19.43l-7.027 16.88H0z"/><path fill="url(#C)" d="M0 .087h30v16.88H0z"/></g><g transform="translate(7 6)"><mask id="E" fill="#fff"><use xlink:href="#D"/></mask><use fill="#06070d" xlink:href="#D"/><g mask="url(#E)" fill="#869f8d"><path d="M-2.91-1.727H18.91V20.09H-2.91z"/></g></g></g></svg>
